<?xml version="1.0" standalone="no"?>
<!DOCTYPE svg PUBLIC "-//W3C//DTD SVG 20010904//EN"
 "http://www.w3.org/TR/2001/REC-SVG-20010904/DTD/svg10.dtd">
<svg version="1.0" xmlns="http://www.w3.org/2000/svg"
 width="1000.000000pt" height="1000.000000pt" viewBox="0 0 1000.000000 1000.000000"
 preserveAspectRatio="xMidYMid meet">
<metadata>
Created by potrace 1.11, written by Peter Selinger 2001-2013
</metadata>
<g transform="translate(0.000000,1000.000000) scale(0.100000,-0.100000)"
fill="#000000" stroke="none">
<path d="M4660 9989 c-388 -26 -817 -109 -1195 -229 -451 -144 -960 -400
-1357 -682 -959 -680 -1651 -1683 -1948 -2823 -266 -1021 -198 -2109 193
-3100 313 -793 851 -1520 1525 -2061 455 -364 1041 -679 1587 -854 999 -319
2066 -319 3070 1 449 142 960 399 1357 681 959 680 1651 1683 1948 2823 266
1021 198 2109 -193 3100 -313 793 -852 1521 -1525 2061 -455 364 -1043 680
-1587 853 -603 192 -1251 272 -1875 230z m2300 -4158 c0 -3090 3 -2946 -55
-3160 -135 -502 -538 -921 -1110 -1154 -348 -142 -673 -195 -1134 -184 -439
10 -711 76 -1026 248 -216 117 -452 273 -552 364 l-45 40 512 327 511 327 62
-45 c80 -60 282 -158 375 -183 177 -48 362 -48 551 0 260 67 477 258 555 489
52 155 49 11 53 2983 l4 2787 649 0 650 0 0 -2839z"/>
</g>
</svg>
