<?xml version="1.0" standalone="no"?>
<!DOCTYPE svg PUBLIC "-//W3C//DTD SVG 20010904//EN"
 "http://www.w3.org/TR/2001/REC-SVG-20010904/DTD/svg10.dtd">
<svg version="1.0" xmlns="http://www.w3.org/2000/svg"
 width="1000.000000pt" height="1000.000000pt" viewBox="0 0 1000.000000 1000.000000"
 preserveAspectRatio="xMidYMid meet">
<metadata>
Created by potrace 1.11, written by Peter Selinger 2001-2013
</metadata>
<g transform="translate(0.000000,1000.000000) scale(0.100000,-0.100000)"
fill="#000000" stroke="none">
<path d="M4660 9989 c-388 -26 -817 -109 -1195 -229 -451 -144 -960 -400
-1357 -682 -959 -680 -1651 -1683 -1948 -2823 -266 -1021 -198 -2109 193
-3100 313 -793 851 -1520 1525 -2061 455 -364 1041 -679 1587 -854 999 -319
2066 -319 3070 1 449 142 960 399 1357 681 959 680 1651 1683 1948 2823 266
1021 198 2109 -193 3100 -313 793 -852 1521 -1525 2061 -455 364 -1043 680
-1587 853 -603 192 -1251 272 -1875 230z m2647 -3896 c-3 -2359 -4 -2567 -20
-2678 -75 -517 -229 -925 -474 -1253 -71 -95 -234 -265 -328 -342 -308 -253
-686 -402 -1152 -456 -173 -20 -616 -14 -792 11 -741 104 -1282 433 -1696
1030 -34 50 -81 123 -105 163 -42 72 -43 74 -24 91 10 10 257 195 548 411 495
368 530 392 543 374 7 -10 50 -75 95 -144 143 -217 341 -393 536 -475 139 -58
200 -69 377 -70 174 0 260 14 377 61 236 96 385 313 452 659 40 204 39 177 43
2713 l4 2462 810 0 809 0 -3 -2557z"/>
</g>
</svg>
