<svg height="52.84pt" viewBox="0 0 52.84 52.84" width="52.84pt" xmlns="http://www.w3.org/2000/svg" xmlns:xlink="http://www.w3.org/1999/xlink"><symbol id="a" overflow="visible"><path d="m3.3125-.75c.046875.390625.3125.8125.78125.8125.21875 0 .828125-.140625.828125-.953125v-.5625h-.25v.5625c0 .578125-.25.640625-.359375.640625-.328125 0-.375-.453125-.375-.5v-1.984375c0-.421875 0-.8125-.359375-1.1875-.390625-.390625-.890625-.546875-1.359375-.546875-.828125 0-1.515625.46875-1.515625 1.125 0 .296875.203125.46875.46875.46875.28125 0 .453125-.203125.453125-.453125 0-.125-.046875-.453125-.515625-.453125.28125-.359375.765625-.46875 1.078125-.46875.5 0 1.0625.390625 1.0625 1.28125v.359375c-.515625.03125-1.203125.0625-1.828125.359375-.75.34375-1 .859375-1 1.296875 0 .8125.96875 1.0625 1.59375 1.0625.65625 0 1.109375-.40625 1.296875-.859375zm-.0625-1.640625v1c0 .9375-.71875 1.28125-1.171875 1.28125-.484375 0-.890625-.34375-.890625-.84375 0-.546875.421875-1.375 2.0625-1.4375zm0 0"/></symbol><symbol id="b" overflow="visible"><path d="m1.71875-3.765625v-3.15625l-1.4375.109375v.3125c.703125 0 .78125.0625.78125.5625v5.9375h.25c0-.015625.078125-.15625.359375-.625.140625.234375.5625.734375 1.296875.734375 1.1875 0 2.21875-.984375 2.21875-2.265625 0-1.265625-.96875-2.25-2.109375-2.25-.78125 0-1.203125.46875-1.359375.640625zm.03125 2.625v-2.046875c0-.1875 0-.203125.109375-.359375.390625-.5625.9375-.640625 1.171875-.640625.453125 0 .8125.265625 1.046875.640625.265625.40625.28125.96875.28125 1.390625 0 .359375-.015625.953125-.296875 1.40625-.21875.3125-.59375.640625-1.125.640625-.453125 0-.8125-.234375-1.046875-.609375-.140625-.203125-.140625-.234375-.140625-.421875zm0 0"/></symbol><symbol id="c" overflow="visible"><path d="m1.171875-2.171875c0-1.625.8125-2.046875 1.34375-2.046875.09375 0 .71875.015625 1.0625.375-.40625.03125-.46875.328125-.46875.453125 0 .265625.1875.453125.453125.453125s.46875-.15625.46875-.46875c0-.671875-.765625-1.0625-1.53125-1.0625-1.25 0-2.15625 1.078125-2.15625 2.3125 0 1.28125.984375 2.265625 2.140625 2.265625 1.328125 0 1.65625-1.203125 1.65625-1.296875s-.109375-.09375-.140625-.09375c-.078125 0-.109375.03125-.125.09375-.28125.921875-.9375 1.046875-1.296875 1.046875-.53125 0-1.40625-.421875-1.40625-2.03125zm0 0"/></symbol><symbol id="d" overflow="visible"><path d="m3.78125-.546875v.65625l1.46875-.109375v-.3125c-.6875 0-.78125-.0625-.78125-.5625v-6.046875l-1.421875.109375v.3125c.6875 0 .765625.0625.765625.5625v2.15625c-.28125-.359375-.71875-.625-1.25-.625-1.171875 0-2.21875.984375-2.21875 2.265625 0 1.265625.96875 2.25 2.109375 2.25.640625 0 1.078125-.34375 1.328125-.65625zm0-2.671875v2.046875c0 .171875 0 .1875-.109375.359375-.296875.484375-.734375.703125-1.171875.703125-.453125 0-.8125-.265625-1.046875-.640625-.25-.40625-.28125-.96875-.28125-1.390625 0-.359375.015625-.953125.296875-1.40625.21875-.3125.59375-.640625 1.140625-.640625.34375 0 .765625.15625 1.0625.59375.109375.171875.109375.1875.109375.375zm0 0"/></symbol><symbol id="e" overflow="visible"><path d="m1.109375-2.515625c.0625-1.484375.90625-1.734375 1.25-1.734375 1.015625 0 1.125 1.34375 1.125 1.734375zm0 .21875h2.78125c.21875 0 .25 0 .25-.21875 0-.984375-.546875-1.953125-1.78125-1.953125-1.15625 0-2.078125 1.03125-2.078125 2.28125 0 1.328125 1.046875 2.296875 2.1875 2.296875 1.21875 0 1.671875-1.109375 1.671875-1.296875 0-.09375-.078125-.125-.140625-.125-.078125 0-.109375.0625-.125.140625-.34375 1.03125-1.25 1.03125-1.34375 1.03125-.5 0-.890625-.296875-1.125-.671875-.296875-.46875-.296875-1.125-.296875-1.484375zm0 0"/></symbol><path d="m5.978438-.001875c0 3.304687-2.675782 5.980469-5.976563 5.980469-3.304687 0-5.980469-2.675782-5.980469-5.980469 0-3.300781 2.675782-5.976563 5.980469-5.976563 3.300781 0 5.976563 2.675782 5.976563 5.976563zm0 0" fill="#d9d9d9" stroke="#000" stroke-miterlimit="10" stroke-width=".79701" transform="matrix(1 0 0 -1 26.42 26.42)"/><use x="23.929" xlink:href="#a" y="28.565"/><path d="m-14.068437 20.045c0 3.300781-2.675782 5.976562-5.976563 5.976562s-5.976562-2.675781-5.976562-5.976562 2.675781-5.976563 5.976562-5.976563 5.976563 2.675782 5.976563 5.976563zm0 0" fill="#d9d9d9" stroke="#000" stroke-miterlimit="10" stroke-width=".79701" transform="matrix(1 0 0 -1 26.42 26.42)"/><use x="3.609" xlink:href="#b" y="9.835"/><path d="m26.021406 20.045c0 3.300781-2.675781 5.976562-5.976562 5.976562s-5.976563-2.675781-5.976563-5.976562 2.675782-5.976563 5.976563-5.976563 5.976562 2.675782 5.976562 5.976563zm0 0" fill="#d9d9d9" stroke="#000" stroke-miterlimit="10" stroke-width=".79701" transform="matrix(1 0 0 -1 26.42 26.42)"/><use x="44.25" xlink:href="#c" y="8.521"/><path d="m26.021406-20.044844c0 3.300781-2.675781 5.976563-5.976562 5.976563s-5.976563-2.675782-5.976563-5.976563 2.675782-5.976562 5.976563-5.976562 5.976562 2.675781 5.976562 5.976562zm0 0" fill="#d9d9d9" stroke="#000" stroke-miterlimit="10" stroke-width=".79701" transform="matrix(1 0 0 -1 26.42 26.42)"/><use x="43.697" xlink:href="#d" y="49.923"/><path d="m-14.068437-20.044844c0 3.300781-2.675782 5.976563-5.976563 5.976563s-5.976562-2.675782-5.976562-5.976563 2.675781-5.976562 5.976562-5.976562 5.976563 2.675781 5.976563 5.976562zm0 0" fill="#d9d9d9" stroke="#000" stroke-miterlimit="10" stroke-width=".79701" transform="matrix(1 0 0 -1 26.42 26.42)"/><use x="4.162" xlink:href="#e" y="48.609"/><path d="m-4.509844 4.509844-9.195312 9.195312" fill="none" stroke="#000" stroke-miterlimit="10" stroke-width=".79701" transform="matrix(1 0 0 -1 26.42 26.42)"/><path d="m10.882812 10.882812 1.46875 4.398438.363282-2.566406 2.566406-.367188"/><path d="m-4.509844-4.509688-9.195312-9.195312" fill="none" stroke="#000" stroke-miterlimit="10" stroke-width=".79701" transform="matrix(1 0 0 -1 26.42 26.42)"/><path d="m10.882812 41.957031 4.398438-1.464843-2.566406-.367188-.363282-2.566406"/><path d="m-13.67 20.045h24.746094" fill="none" stroke="#000" stroke-miterlimit="10" stroke-width=".79701" transform="matrix(1 0 0 -1 26.42 26.42)"/><path d="m40.089844 6.375-4.144532-2.070312 1.550782 2.070312-1.550782 2.074219"/><path d="m20.044844 13.67v-24.746094" fill="none" stroke="#000" stroke-miterlimit="10" stroke-width=".79701" transform="matrix(1 0 0 -1 26.42 26.42)"/><path d="m46.464844 40.089844 2.070312-4.144532-2.070312 1.550782-2.074219-1.550782"/><path d="m18.3925-13.872969c-1.753906 6.535156-5.6875 10.46875-9.714844 11.546875" fill="none" stroke="#000" stroke-miterlimit="10" stroke-width=".79701" transform="matrix(1 0 0 -1 26.42 26.42)"/><path d="m32.589844 28.074219 3.476562 3.078125-.96875-2.40625 2.042969-1.601563"/><path d="m1.654219-6.169844c1.75-6.535156 5.683594-10.46875 9.710937-11.550781" fill="none" stroke="#000" stroke-miterlimit="10" stroke-width=".79701" transform="matrix(1 0 0 -1 26.42 26.42)"/><path d="m40.292969 44.8125-3.472657-3.082031.964844 2.410156-2.039062 1.601563"/></svg>